<svg xmlns="http://www.w3.org/2000/svg" viewBox="0 0 90 82.1"><defs><style>.cls-1{fill:#9ca7b7;}</style></defs><g id="Layer_2" data-name="Layer 2"><g id="Layer_1-2" data-name="Layer 1"><path class="cls-1" d="M74,44.3H87.8A2.22,2.22,0,0,0,90,42.1V2.2A2.22,2.22,0,0,0,87.8,0H74a2.22,2.22,0,0,0-2.2,2.2V42.1A2.16,2.16,0,0,0,74,44.3Zm6.9-13.1a3.9,3.9,0,0,1,0,7.8,3.9,3.9,0,0,1,0-7.8ZM1.4,18.5a6.28,6.28,0,0,1,1.8-4.4,6,6,0,0,1,4.3-1.8h2.7A6.15,6.15,0,0,1,4.1,6.1,6.15,6.15,0,0,1,10.2,0H46.5C56.9,0,61.9.2,65.6,1.2a19.51,19.51,0,0,1,2.9,1.1c.6.3,1.3.7,2,1v37a10.46,10.46,0,0,0-7.7,4.9c-4,6.1-9.2,11-14.8,16.1l-1,.9a28.9,28.9,0,0,0-9,15.9c-.5,2.7-1.6,3.4-2.8,3.7a4.9,4.9,0,0,1-5.4-1.4C28.3,79,27.5,77.1,27,74a18.25,18.25,0,0,1,4.6-15.2c.9-1,1.8-2.2,2.7-3.4a4,4,0,0,0,.5-3.9,3.6,3.6,0,0,0-3.2-2.1,23.76,23.76,0,0,0-3.9-.3H7.5a6.15,6.15,0,0,1-6.1-6.2,6.15,6.15,0,0,1,6.1-6.1H6.1A6.15,6.15,0,0,1,0,30.6a6.15,6.15,0,0,1,6.1-6.1H7.5A5.92,5.92,0,0,1,1.4,18.5Z"/></g></g></svg>