<svg xmlns="http://www.w3.org/2000/svg" viewBox="0 0 87.2 76.5"><defs><style>.cls-1{fill:#9ca7b7;fill-rule:evenodd;}</style></defs><g id="Layer_2" data-name="Layer 2"><g id="Layer_1-2" data-name="Layer 1"><path class="cls-1" d="M43.6,0C19.5,0,0,14.7,0,32.8c0,9.7,5.7,18.5,14.7,24.5L10.9,76.5,31.3,64.2a54.58,54.58,0,0,0,12.3,1.3c24.1,0,43.6-14.7,43.6-32.7S67.7,0,43.6,0ZM27.3,38.2a5.5,5.5,0,1,1,5.5-5.5A5.55,5.55,0,0,1,27.3,38.2Zm16.3,0a5.5,5.5,0,1,1,5.5-5.5A5.48,5.48,0,0,1,43.6,38.2Zm16.4,0a5.5,5.5,0,1,1,5.5-5.5A5.48,5.48,0,0,1,60,38.2Z"/></g></g></svg>