<svg xmlns="http://www.w3.org/2000/svg" viewBox="0 0 94.4 62.55"><defs><style>.cls-1{fill:#9ca7b7;}</style></defs><g id="Layer_2" data-name="Layer 2"><g id="Layer_1-2" data-name="Layer 1"><path class="cls-1" d="M72.3,47.79h0L48.5,20.19c0-.1-.1-.1-.1-.2a2.73,2.73,0,0,0-1.8-1.5c-.9-.2-1.9.3-3.2,1.2-6.7,5.9-12.9,7.8-18.9,5.5l-.1-.1c-3.5-1.8-5.3-3.5-5.6-5.5s1.1-4.3,3.5-6.8c.2-.2.2-.5,0-.6s-.4-.2-.6-.1l-4.5,2V6.79A2.22,2.22,0,0,0,15,4.59H2.2A2.22,2.22,0,0,0,0,6.79v46.6a2.22,2.22,0,0,0,2.2,2.2H15.1a2.22,2.22,0,0,0,2.2-2.2h0v-10l23.8,17.2a.1.1,0,0,1,.1.1c6.2,5,19.8-1,27.2-7.3,3.5-2.9,4.3-4.8,4-5.4A.35.35,0,0,1,72.3,47.79ZM8.7,18a3.4,3.4,0,1,1,3.4-3.4h0A3.37,3.37,0,0,1,8.7,18Z"/><path class="cls-1" d="M92.2,4.59H79.3a2.22,2.22,0,0,0-2.2,2.2v6.8a5.58,5.58,0,0,0-.8-.5L50.4.79a8.16,8.16,0,0,0-8.5.9L22.5,16.89a2.2,2.2,0,0,0-.4,3c.2.2.3.4.6.5a12.62,12.62,0,0,0,11.9,1.2,14.87,14.87,0,0,0,5.7-4.2c3.3-3.7,6.4-3.4,9.5-.2l24.8,28.1a2.66,2.66,0,0,0,2.5.9v7.2a2.22,2.22,0,0,0,2.2,2.2H92.2a2.22,2.22,0,0,0,2.2-2.2h0V6.79a2.22,2.22,0,0,0-2.2-2.2Zm-6.5,45.1a3.4,3.4,0,1,1,3.4-3.4h0A3.37,3.37,0,0,1,85.7,49.69Z"/></g></g></svg>